<?xml version="1.0" encoding="utf-8"?>
<!-- Svg Vector Icons : http://www.onlinewebfonts.com/icon -->
<!DOCTYPE svg PUBLIC "-//W3C//DTD SVG 1.1//EN" "http://www.w3.org/Graphics/SVG/1.1/DTD/svg11.dtd">
<svg version="1.1" xmlns="http://www.w3.org/2000/svg" xmlns:xlink="http://www.w3.org/1999/xlink" x="0px" y="0px" viewBox="0 0 1000 1000" enable-background="new 0 0 1000 1000" xml:space="preserve">
<metadata> Svg Vector Icons : http://www.onlinewebfonts.com/icon </metadata>
<g><path d="M251.7,950c-55.6,0-110.4-22-154.4-61.9c-35.2-31.9-63-71.9-87.3-125.7V658.6c21.3-65.6,67-114,116.1-162c74.6-73,149.6-148.1,222-220.8c34.3-34.4,69.7-70,104.7-104.8l1.9-1.9c8.6-8.6,16.7-16.7,25.6-22.5c4.8-3.1,9.3-4.7,13.5-4.7c5.3,0,10.7,2.7,16,8c7.6,7.6,10.6,15.3,0.9,28.3c-7.1,9.5-15.7,18.2-24.9,27.3l-0.6,0.6C431.1,260.2,377,314.3,322.8,368.4c-58,58-116,116-174,174c-38.4,38.5-61.9,72.4-76.2,110C46.6,721,61.6,784.1,117,840.1c36.1,36.4,77.1,54.9,122.1,54.9c20.1,0,41.1-3.8,62.4-11.2c39.1-13.6,74.9-37,109.3-71.3c145.9-145.6,302-301.5,455.3-455.5c18.8-18.9,34.1-38,45.7-57c30.9-50.8,25-107.2-15.7-150.9c-27-29-58-43.6-92.2-43.6c-19.4,0-39.5,4.9-59.7,14.6c-18.7,9-35.9,21.6-54.2,39.8c-51,50.7-102.1,101.3-153.1,151.9c-66.5,65.9-135.2,134.1-202.7,201.2c-27.3,27.2-41.6,55.4-41.5,81.7c0.1,18.9,7.8,36.2,22.1,50c13.4,13,30,19.8,48,19.8c26.7,0,55.5-14.9,83.3-43.2c87.4-88.6,173.7-175.8,239.2-241.9l0.3-0.3c8.3-8.4,16.1-16.3,24.7-22.5c6.7-4.8,12.8-7.3,18-7.3c2,0,8.1,0,16.1,8.8c7.9,8.7,10.9,17.6-0.3,32.2c-3,3.9-6.5,7.9-10.7,12.1c-26.2,26.2-52.3,52.4-78.4,78.7C590.4,546.3,523.4,613.6,456.7,679c-29.3,28.7-59.5,43.2-90,43.2c-29.9,0-59.4-14-87.6-41.7c-55.2-54.1-57.8-120.2-7-172.4c106.2-109,216.2-218.1,322.5-323.6c32.1-31.9,64.2-63.7,96.3-95.6c14.1-14.1,32.7-22.6,52.4-31.6c5.1-2.3,10.4-4.8,15.6-7.3H846c3.5,2,7,3.9,10.5,5.8c9.9,5.5,20.2,11.1,29.9,16.9c57.7,34.2,94.9,86.3,102.2,143.1c6.3,49.2-10.7,96.9-47.8,134.3c-181.6,183.1-361.8,363.1-535.6,535C363.1,927,308.5,950,251.7,950z"/></g>
</svg>