<?xml version="1.0" encoding="utf-8"?>
<!-- Svg Vector Icons : http://www.onlinewebfonts.com/icon -->
<!DOCTYPE svg PUBLIC "-//W3C//DTD SVG 1.1//EN" "http://www.w3.org/Graphics/SVG/1.1/DTD/svg11.dtd">
<svg version="1.1" xmlns="http://www.w3.org/2000/svg" xmlns:xlink="http://www.w3.org/1999/xlink" x="0px" y="0px" viewBox="0 0 1000 1000" enable-background="new 0 0 1000 1000" xml:space="preserve">
<metadata> Svg Vector Icons : http://www.onlinewebfonts.com/icon </metadata>
<g><g transform="translate(0.000000,511.000000) scale(0.100000,-0.100000)"><path d="M4774.3,4986.4c-496.8-97.6-893.1-508.3-982.1-1025.2c-89-493.9,209.6-1053.9,674.9-1272.2c758.1-353.2,1608.2,94.8,1743.1,919c80.4,502.6-209.6,1051.1-672,1266.5C5259.6,5006.5,5035.6,5038.1,4774.3,4986.4z M5328.5,4300.1c57.4-40.2,140.7-123.5,183.8-183.8c68.9-100.5,77.5-140.7,77.5-333.1s-8.6-232.6-77.5-333.1c-43.1-60.3-126.4-143.6-186.7-183.8c-89-60.3-137.8-71.8-324.5-71.8s-235.5,11.5-324.5,71.8c-232.6,157.9-338.9,462.3-252.7,726.5c40.2,117.7,206.8,298.7,330.2,353.2C4897.8,4412.1,5199.3,4386.2,5328.5,4300.1z"/><path d="M4774.3,1310.6c-496.8-97.6-893.1-508.3-982.1-1025.2c-89-496.8,209.6-1053.9,674.9-1272.2c364.7-169.4,703.6-169.4,1071.2,0c459.5,218.3,749.5,758.1,672,1257.8c-83.3,531.3-476.7,941.9-1005.1,1042.4C5029.9,1345,4952.3,1345,4774.3,1310.6z M5328.5,624.2c57.4-40.2,140.7-123.5,183.8-183.8c68.9-100.5,77.5-140.7,77.5-333.1c0-192.4-8.6-232.6-77.5-333.1c-43.1-60.3-126.4-143.6-186.7-183.8c-89-60.3-137.8-71.8-324.5-71.8s-235.5,11.5-324.5,71.8C4444.1-251.6,4337.8,52.8,4423.9,317c40.2,117.7,206.8,298.7,330.2,353.2C4897.8,736.2,5199.3,710.4,5328.5,624.2z"/><path d="M4774.3-2365.3c-364.7-71.8-715.1-341.7-867.3-669.1c-172.3-367.6-172.3-700.7,0-1068.3c218.3-462.4,758.1-752.4,1257.8-674.9c548.5,86.2,959.1,496.8,1045.3,1045.3c77.5,499.7-212.5,1039.6-672,1255C5259.6-2345.2,5035.6-2313.5,4774.3-2365.3z M5328.5-3051.6c57.4-40.2,140.7-123.5,183.8-183.8c68.9-100.5,77.5-140.7,77.5-333.1s-8.6-232.6-77.5-333.1c-43.1-60.3-126.4-143.6-186.7-183.8c-89-60.3-137.8-71.8-324.5-71.8s-235.5,11.5-324.5,71.8c-232.6,157.9-338.9,462.3-252.7,726.6c40.2,117.7,206.8,298.7,330.2,353.2C4897.8-2939.6,5199.3-2965.4,5328.5-3051.6z"/></g></g>
</svg>