<?xml version="1.0" encoding="utf-8"?>
<!-- Svg Vector Icons : http://www.onlinewebfonts.com/icon -->
<!DOCTYPE svg PUBLIC "-//W3C//DTD SVG 1.1//EN" "http://www.w3.org/Graphics/SVG/1.1/DTD/svg11.dtd">
<svg version="1.1" xmlns="http://www.w3.org/2000/svg" xmlns:xlink="http://www.w3.org/1999/xlink" x="0px" y="0px" viewBox="0 0 1000 1000" enable-background="new 0 0 1000 1000" xml:space="preserve">
<metadata> Svg Vector Icons : http://www.onlinewebfonts.com/icon </metadata>
<g><path d="M859.3,859.3H140.7V140.7h522.7V10H42.7C24.6,10,10,24.6,10,42.7v914.7c0,18,14.6,32.7,32.7,32.7h914.7c18,0,32.7-14.6,32.7-32.7V336.7H859.3V859.3z"/><path d="M980.4,65.8l-46.2-46.2c-12.8-12.8-33.4-12.8-46.2,0L495.4,412.2l92.4,92.4L980.4,112C993.2,99.2,993.2,78.5,980.4,65.8z"/><path d="M403,597l153-31.8L434.7,444L403,597z"/></g>
</svg>