<?xml version="1.0" encoding="utf-8"?>
<!-- Svg Vector Icons : http://www.onlinewebfonts.com/icon -->
<!DOCTYPE svg PUBLIC "-//W3C//DTD SVG 1.1//EN" "http://www.w3.org/Graphics/SVG/1.1/DTD/svg11.dtd">
<svg version="1.1" xmlns="http://www.w3.org/2000/svg" xmlns:xlink="http://www.w3.org/1999/xlink" x="0px" y="0px" viewBox="0 0 1000 1000" enable-background="new 0 0 1000 1000" xml:space="preserve">
<metadata> Svg Vector Icons : http://www.onlinewebfonts.com/icon </metadata>
<g><path d="M757.7,591.1c-15.6-7-33.6,0.1-40.5,15.5c-0.6,1.4-63.3,138-219.6,139.8c-1,0-1.9,0.1-2.9,0.1c-147.1,0-210.5-134.3-213.1-140.1c-7-15.3-25.1-22.1-40.5-15.3c-15.4,7-22.3,25.1-15.3,40.5c3.2,7.3,81.7,176,268.7,176c1.3,0,2.5-0.1,3.7-0.1c195.1-2.2,271.6-169,274.7-176.1C780.1,616.1,773.1,597.9,757.7,591.1z M500,10C229.4,10,10,229.4,10,500c0,270.6,219.4,490,490,490c270.6,0,490-219.4,490-490C990,229.4,770.6,10,500,10z M500,928.8C263.6,928.8,71.3,736.4,71.3,500S263.6,71.3,500,71.3c236.4,0,428.8,192.4,428.8,428.8S736.4,928.8,500,928.8z M346.4,469.3c33.7,0,61.1-27.4,61.1-61.1c0-33.7-27.4-61.1-61.1-61.1s-61.1,27.4-61.1,61.1C285.3,441.8,312.6,469.3,346.4,469.3z M652.7,469.3c33.7,0,61.1-27.4,61.1-61.1c0-33.7-27.4-61.1-61.1-61.1s-61.1,27.4-61.1,61.1C591.6,441.8,618.9,469.3,652.7,469.3z"/></g>
</svg>