<?xml version="1.0" encoding="utf-8"?>
<!-- Svg Vector Icons : http://www.onlinewebfonts.com/icon -->
<!DOCTYPE svg PUBLIC "-//W3C//DTD SVG 1.1//EN" "http://www.w3.org/Graphics/SVG/1.1/DTD/svg11.dtd">
<svg version="1.1" xmlns="http://www.w3.org/2000/svg" xmlns:xlink="http://www.w3.org/1999/xlink" x="0px" y="0px" viewBox="0 0 1000 1000" enable-background="new 0 0 1000 1000" xml:space="preserve">
<metadata> Svg Vector Icons : http://www.onlinewebfonts.com/icon </metadata>
<g><g><path d="M773.4,474.6h87.1c0,87.1-30.2,163.3-90.7,228.7c-60.5,65.3-133.5,104.5-219,117.4V990H449.2V820.6c-85.5-12.9-158.5-52-219-117.4c-60.5-65.3-90.7-141.6-90.7-228.7h87.1c0,75.8,27,138.3,81.1,187.5c54,49.2,118.2,73.8,192.4,73.8c74.2,0,138.3-24.6,192.4-73.8C746.4,612.9,773.4,550.4,773.4,474.6z M500,629.5c-41.9,0-78.2-15.3-108.9-46c-30.6-30.7-46-66.9-46-108.9V164.9c0-41.9,15.3-78.2,46-108.9c30.6-30.7,66.9-46,108.9-46s78.2,15.3,108.9,46c30.7,30.7,46,66.9,46,108.9v309.7c0,41.9-15.3,78.2-46,108.9C578.2,614.1,541.9,629.5,500,629.5z"/></g></g>
</svg>