<?xml version="1.0" encoding="utf-8"?>
<!-- Svg Vector Icons : http://www.onlinewebfonts.com/icon -->
<!DOCTYPE svg PUBLIC "-//W3C//DTD SVG 1.1//EN" "http://www.w3.org/Graphics/SVG/1.1/DTD/svg11.dtd">
<svg version="1.1" xmlns="http://www.w3.org/2000/svg" xmlns:xlink="http://www.w3.org/1999/xlink" x="0px" y="0px" viewBox="0 0 1000 1000" enable-background="new 0 0 1000 1000" xml:space="preserve">
<metadata> Svg Vector Icons : http://www.onlinewebfonts.com/icon </metadata>
<g><path d="M501.6,10l0.2,0.3c19,3.5,427.3,83.1,405.3,489.6c-12.8,237-215.7,367.8-417.3,340.9c-153.1-20.4-294.6-172.5-261.6-354.2c15.5-84.9,63.9-143.6,118.4-181.2c40.6-20,68.7-61.3,68.7-109.6c0-67.6-54.9-122.5-122.5-122.5c-23,0-44.2,6.7-62.6,17.7V91c-0.2,0.1-0.3,0.2-0.4,0.3c-7.5,4.5-14.6,9.7-20.9,15.7C88.6,196.3,10,338.6,10,500c0,270.7,219.3,490,490,490c270.7,0,490-219.3,490-490C990,229.8,771.5,10.9,501.6,10z"/></g>
</svg>